<svg width="70" height="69" viewBox="0 0 70 69" fill="none" xmlns="http://www.w3.org/2000/svg">
<path d="M34.9998 8.625C22.1082 8.625 11.6665 13.7712 11.6665 20.125V48.875C11.6665 55.2287 22.1373 60.375 34.9998 60.375C47.8623 60.375 58.3332 55.2287 58.3332 48.875V20.125C58.3332 13.7712 47.8915 8.625 34.9998 8.625ZM52.4998 48.875C52.4998 50.3125 46.2873 54.625 34.9998 54.625C23.7123 54.625 17.4998 50.3125 17.4998 48.875V42.4638C22.1957 44.7063 28.3498 46 34.9998 46C41.6498 46 47.804 44.7063 52.4998 42.4638V48.875ZM52.4998 35.7937C48.7082 38.525 42.0582 40.25 34.9998 40.25C27.9415 40.25 21.2915 38.525 17.4998 35.7937V27.715C21.7873 30.1013 28.029 31.625 34.9998 31.625C41.9707 31.625 48.2123 30.1013 52.4998 27.715V35.7937ZM34.9998 25.875C23.7123 25.875 17.4998 21.5625 17.4998 20.125C17.4998 18.6875 23.7123 14.375 34.9998 14.375C46.2873 14.375 52.4998 18.6875 52.4998 20.125C52.4998 21.5625 46.2873 25.875 34.9998 25.875Z" fill="#2B8BAE"/>
</svg>
