<svg width="35" height="35" viewBox="0 0 35 35" fill="none" xmlns="http://www.w3.org/2000/svg">
<path d="M0 17.5C0 12.8587 1.84374 8.40752 5.12563 5.12563C8.40752 1.84374 12.8587 0 17.5 0C22.1413 0 26.5925 1.84374 29.8744 5.12563C33.1563 8.40752 35 12.8587 35 17.5C35 22.1413 33.1563 26.5925 29.8744 29.8744C26.5925 33.1563 22.1413 35 17.5 35C12.8587 35 8.40752 33.1563 5.12563 29.8744C1.84374 26.5925 0 22.1413 0 17.5ZM19.6875 6.5625C19.6875 5.98234 19.457 5.42594 19.0468 5.0157C18.6366 4.60547 18.0802 4.375 17.5 4.375C16.9198 4.375 16.3634 4.60547 15.9532 5.0157C15.543 5.42594 15.3125 5.98234 15.3125 6.5625C15.3125 7.14266 15.543 7.69906 15.9532 8.1093C16.3634 8.51953 16.9198 8.75 17.5 8.75C18.0802 8.75 18.6366 8.51953 19.0468 8.1093C19.457 7.69906 19.6875 7.14266 19.6875 6.5625ZM17.5 28.4375C19.9131 28.4375 21.875 26.4756 21.875 24.0625C21.875 22.873 21.4033 21.7998 20.6377 21.0137L25.0195 11.0537C25.3818 10.2266 25.0059 9.25586 24.1787 8.89355C23.3516 8.53125 22.3809 8.90723 22.0186 9.73437L17.6299 19.6875H17.5C15.0869 19.6875 13.125 21.6494 13.125 24.0625C13.125 26.4756 15.0869 28.4375 17.5 28.4375ZM12.0312 9.84375C12.0312 9.26359 11.8008 8.70719 11.3905 8.29695C10.9803 7.88672 10.4239 7.65625 9.84375 7.65625C9.26359 7.65625 8.70719 7.88672 8.29695 8.29695C7.88672 8.70719 7.65625 9.26359 7.65625 9.84375C7.65625 10.4239 7.88672 10.9803 8.29695 11.3905C8.70719 11.8008 9.26359 12.0312 9.84375 12.0312C10.4239 12.0312 10.9803 11.8008 11.3905 11.3905C11.8008 10.9803 12.0312 10.4239 12.0312 9.84375ZM6.5625 19.6875C7.14266 19.6875 7.69906 19.457 8.1093 19.0468C8.51953 18.6366 8.75 18.0802 8.75 17.5C8.75 16.9198 8.51953 16.3634 8.1093 15.9532C7.69906 15.543 7.14266 15.3125 6.5625 15.3125C5.98234 15.3125 5.42594 15.543 5.0157 15.9532C4.60547 16.3634 4.375 16.9198 4.375 17.5C4.375 18.0802 4.60547 18.6366 5.0157 19.0468C5.42594 19.457 5.98234 19.6875 6.5625 19.6875ZM30.625 17.5C30.625 16.9198 30.3945 16.3634 29.9843 15.9532C29.5741 15.543 29.0177 15.3125 28.4375 15.3125C27.8573 15.3125 27.3009 15.543 26.8907 15.9532C26.4805 16.3634 26.25 16.9198 26.25 17.5C26.25 18.0802 26.4805 18.6366 26.8907 19.0468C27.3009 19.457 27.8573 19.6875 28.4375 19.6875C29.0177 19.6875 29.5741 19.457 29.9843 19.0468C30.3945 18.6366 30.625 18.0802 30.625 17.5Z" fill="#59C2E8"/>
</svg>
