<svg width="35" height="35" viewBox="0 0 35 35" fill="none" xmlns="http://www.w3.org/2000/svg">
<path fill-rule="evenodd" clip-rule="evenodd" d="M16.135 0.223354C16.9023 -0.0366832 17.7407 -0.0705837 18.5306 0.126489L18.865 0.223354L32.4761 4.84651C33.1662 5.08091 33.7686 5.48812 34.2131 6.02071C34.6575 6.55329 34.9257 7.1893 34.9864 7.85464L35 8.14524V17.5906C34.9999 20.4445 34.1492 23.2454 32.5376 25.6977C30.9259 28.15 28.6133 30.1628 25.8436 31.5234L25.3264 31.7682L18.8047 34.7218C18.4456 34.8842 18.0534 34.9777 17.6526 34.9965C17.2517 35.0153 16.851 34.9589 16.4753 34.831L16.1953 34.7218L9.67361 31.7682C6.85535 30.4919 4.46984 28.55 2.7689 26.1476C1.06795 23.7451 0.114684 20.9713 0.00972244 18.1189L0 17.5906V8.14524C1.1307e-05 7.47797 0.209274 6.82443 0.603427 6.2607C0.997579 5.69697 1.56041 5.24624 2.22639 4.96099L2.52389 4.84651L16.135 0.223354ZM24.1753 11.5549L15.2347 19.6529L11.7969 16.5391C11.4321 16.2089 10.9373 16.0235 10.4215 16.0236C9.90573 16.0238 9.41113 16.2095 9.04653 16.54C8.68193 16.8705 8.4772 17.3186 8.47738 17.7858C8.47757 18.253 8.68264 18.701 9.0475 19.0312L13.7219 23.2651C13.9206 23.4451 14.1564 23.5879 14.416 23.6853C14.6755 23.7828 14.9538 23.8329 15.2347 23.8329C15.5157 23.8329 15.7939 23.7828 16.0535 23.6853C16.313 23.5879 16.5489 23.4451 16.7475 23.2651L26.9247 14.0453C27.1104 13.8828 27.2586 13.6885 27.3605 13.4736C27.4624 13.2587 27.516 13.0276 27.5183 12.7938C27.5205 12.5599 27.4713 12.328 27.3735 12.1115C27.2758 11.8951 27.1314 11.6985 26.9488 11.5331C26.7663 11.3677 26.5492 11.237 26.3102 11.1484C26.0712 11.0598 25.8152 11.0153 25.557 11.0173C25.2988 11.0193 25.0437 11.0679 24.8064 11.1602C24.5692 11.2525 24.3546 11.3867 24.1753 11.5549Z" fill="#59C2E8"/>
</svg>
