<svg width="105" height="105" viewBox="0 0 105 105" fill="none" xmlns="http://www.w3.org/2000/svg">
<path d="M59.2321 10.0532C59.0393 10.0269 55.9279 11.1499 53.9214 11.9645C51.2127 13.0695 49.1094 14.1219 47.8117 15.0325C47.3819 15.3376 46.8733 15.8389 46.6969 16.1145L46.6887 16.0931C46.6887 16.0931 46.6723 16.1456 46.6641 16.1604C46.6559 16.1768 46.6354 16.2014 46.6296 16.2154C46.593 16.3104 46.5744 16.4113 46.5747 16.5131L46.6042 16.5402C46.6116 16.6346 46.6346 16.7404 46.6805 16.856C46.7953 17.1366 47.1276 17.4778 47.5041 17.8289C47.5041 17.8289 51.4047 21.6319 51.878 22.1749C54.0338 24.6646 54.973 27.1181 55.0608 30.5011C55.1133 32.6749 54.7007 34.5871 53.6761 36.8044C51.8534 40.7837 48.0053 45.174 42.0712 50.0467L42.1565 50.018C42.1204 50.0467 42.0613 50.0992 42.0269 50.1271C41.3165 50.6882 40.2648 51.739 39.73 52.4051C38.9326 53.4042 38.3026 54.4657 38.0303 55.2811C37.5488 56.7536 37.7842 58.2424 38.7136 59.6181C39.9055 61.3711 42.282 63.1602 45.0514 64.3784C46.4623 65.0002 48.8371 65.7975 50.6254 66.2446C53.5966 66.9993 59.3469 67.8138 62.5101 67.9369C63.1499 67.9631 64.0088 67.9631 64.0441 67.9369C64.1138 67.8926 64.6051 66.9558 65.1744 65.7893C67.1202 61.819 68.523 58.094 69.2858 54.912C69.7411 52.9842 70.1004 50.4158 70.3367 47.3741C70.399 46.5243 70.4244 43.6762 70.3719 42.7123C70.2924 41.1348 70.1521 39.8543 69.9331 38.6009C69.9076 38.4663 69.9117 38.4007 69.9142 38.34C76.9582 36.2474 84.729 34.3517 89.8913 33.5617L90.687 33.4387L90.5656 33.2467C89.8642 32.1598 89.3827 31.483 88.8035 30.7644C87.1211 28.6784 85.0785 26.9869 82.5807 25.585C79.1444 23.6655 74.7007 22.1667 69.0742 21.0536C68.0144 20.8436 65.6847 20.4408 63.7914 20.1512L63.6142 19.8362C62.5798 18.0135 61.4404 15.7519 60.7759 14.2269C60.2583 13.044 59.7669 11.6758 59.4954 10.6939C59.3461 10.0983 59.3281 10.063 59.2329 10.0548L59.2321 10.0532ZM59.091 10.5003H59.1008C59.109 10.5085 59.1443 10.7562 59.1796 11.0449C59.3348 12.301 59.6198 13.5375 60.0303 14.7347C60.3543 15.6994 60.3543 15.6453 59.9769 15.5304C59.0836 15.286 55.0772 14.5953 52.1758 14.1917C51.7115 14.1301 51.3177 14.0686 51.3177 14.0604C51.2816 14.0251 53.4128 12.912 54.3504 12.4739C55.5514 11.9219 58.8449 10.5446 59.091 10.5003ZM50.6434 14.4271L50.9847 14.5411C52.8427 15.1728 57.5144 16.0669 60.091 16.2777C60.3797 16.304 60.6258 16.3294 60.634 16.3294C60.643 16.3376 60.3986 16.4697 60.0828 16.619C58.8689 17.2261 57.6811 17.884 56.5226 18.591C56.3571 18.7008 56.1838 18.7984 56.0042 18.883L55.1387 18.7419L54.3151 17.9347C53.249 16.8963 52.1766 15.8643 51.0979 14.8389L50.6434 14.4271ZM50.2923 14.6994L51.5277 16.2424C52.202 17.0923 52.8862 17.9241 53.0355 18.1087C53.1692 18.2744 53.2569 18.3843 53.2725 18.4163C52.3997 18.2645 51.4654 18.1062 50.7468 17.952C50.2218 17.8371 49.2144 17.6001 48.4253 17.3285L48.1628 17.2301V17.1366C48.171 16.5492 48.9158 15.6715 50.1783 14.7782L50.2923 14.6994ZM60.7923 16.8035C60.8284 16.8035 60.8719 16.8823 60.9769 17.1185C61.2747 17.7764 62.2041 19.5467 62.4321 19.8887L62.4608 19.9355C60.8061 19.6736 59.1526 19.404 57.5004 19.1267C57.5507 19.0847 57.6057 19.0489 57.6645 19.02C58.6113 18.4895 59.5059 17.8707 60.3362 17.1719C60.538 17.0053 60.7218 16.8478 60.7579 16.8208C60.7661 16.8035 60.7833 16.7945 60.7923 16.8035ZM48.9511 18.2834C48.9593 18.2752 49.1004 18.3277 49.2842 18.39C49.6172 18.5032 50.0471 18.6353 50.5557 18.7756C50.9403 18.8811 51.3258 18.9831 51.7123 19.0815C52.2373 19.2128 52.6762 19.3358 52.6844 19.3358C52.7459 19.3974 53.631 22.2274 53.9288 23.3144C54.0428 23.727 54.1322 24.0772 54.1232 24.0772C54.1142 24.0855 54.0165 23.9378 53.9033 23.736C52.878 21.9305 51.2562 20.0987 49.3801 18.6263C49.2286 18.523 49.0852 18.4084 48.9511 18.2834ZM53.2545 19.4679C53.2545 19.4851 53.2537 19.4761 53.2627 19.4761C53.307 19.4761 53.5006 19.5032 53.7368 19.5557C55.2273 19.8887 57.8999 20.3965 59.6086 20.6853C59.8982 20.7296 60.1262 20.7812 60.1262 20.7993C60.1262 20.8165 60.0212 20.878 59.8892 20.9478C59.2634 21.2956 58.6494 21.6644 58.0484 22.0535C57.0755 22.7016 56.1994 23.403 55.5678 24.0338C55.4117 24.1903 55.2542 24.3453 55.0953 24.4989C55.0953 24.4989 55.0436 24.3488 54.9993 24.165C54.6843 22.9469 54.0256 21.1422 53.4292 19.8715C53.3638 19.7402 53.3055 19.6055 53.2545 19.4679ZM60.8539 20.9223C60.9064 20.9404 60.9941 21.2373 61.1697 21.8952C61.4983 23.2069 61.64 24.5585 61.5905 25.9098C61.5733 26.2781 61.5552 26.6194 61.538 26.6629L61.5109 26.7515L61.0557 26.6022C59.8042 26.2134 58.5474 25.8423 57.2855 25.489C56.5407 25.2872 55.9369 25.1035 55.9369 25.0871C55.9369 25.0337 57.023 23.946 57.4873 23.5342C58.3732 22.7541 60.7743 20.8961 60.8539 20.9223ZM61.4592 21.0109C61.488 20.9847 65.0867 21.6065 66.7257 21.9215C67.9438 22.1594 69.7141 22.526 69.8191 22.5695C69.8716 22.5876 69.6878 22.6926 69.1005 22.9551C66.7872 23.9985 65.0703 24.9369 63.3607 26.0763C62.9137 26.3741 62.5371 26.6194 62.5281 26.6194C62.5191 26.6194 62.5101 26.3651 62.5101 26.0591C62.5101 24.3939 62.177 22.7114 61.5634 21.2906C61.5019 21.1512 61.4502 21.0199 61.4592 21.0109ZM70.7755 22.8517C70.8026 22.878 70.6869 23.5859 70.5819 24.0067C70.2669 25.3126 69.4171 27.251 68.3745 29.0746C68.1899 29.3986 68.0234 29.6611 68.0053 29.6701C67.9881 29.6792 67.7519 29.5471 67.4803 29.388C66.4632 28.7924 65.3065 28.2313 64.0432 27.7063C63.693 27.557 63.3862 27.4356 63.3771 27.4176C63.3156 27.3651 66.1391 25.498 67.6296 24.6039C68.8125 23.8853 70.7411 22.8156 70.7755 22.8517ZM71.4408 22.9559C71.5196 22.9559 73.1159 23.3947 73.9485 23.64C76.0075 24.2536 78.3733 25.1207 79.9163 25.8221L80.5561 26.1116L80.1099 26.2158C76.3414 27.0837 73.1151 28.0828 70.0036 29.3453C69.8395 29.4166 69.6726 29.4812 69.5032 29.5389C69.4868 29.5389 69.5738 29.3355 69.6878 29.0902C70.6254 27.1009 71.2308 25.0247 71.3801 23.2537C71.3883 23.0871 71.4146 22.9559 71.4408 22.9559ZM55.5596 26.6022C55.5866 26.5759 56.8048 26.8647 57.4619 27.0492C58.461 27.3298 60.5815 28.0385 60.5815 28.0919C60.5815 28.1009 60.3453 28.3019 60.0647 28.5471C58.9163 29.5028 57.8113 30.5118 56.4882 31.7915C56.0936 32.1688 55.7614 32.474 55.7441 32.474C55.7269 32.474 55.7179 32.4206 55.7269 32.3509C55.9287 30.8785 55.8836 28.986 55.6039 27.0665C55.5768 26.8212 55.5505 26.6112 55.5596 26.6022ZM81.1615 26.6276C81.1779 26.6448 80.5996 27.557 80.2321 28.0746C79.7063 28.8285 78.936 29.8285 77.1912 32.0187C76.4225 32.9834 75.6569 33.9506 74.8943 34.9201C74.5432 35.3582 74.2545 35.7273 74.2455 35.7273C74.2373 35.7273 74.1232 35.5698 74.0002 35.3762C73.0191 33.9046 71.8428 32.6159 70.4499 31.4592C70.2375 31.279 70.0214 31.1032 69.8018 30.9318C69.7377 30.8893 69.6788 30.8395 69.6263 30.7833C69.6263 30.7571 71.1168 30.1172 72.2472 29.6611C74.4494 28.7754 76.6856 27.9769 78.9508 27.2674C80.0123 26.9352 81.1426 26.6112 81.1607 26.6284L81.1615 26.6276ZM81.8358 26.804C81.8703 26.7958 82.0819 26.9008 82.3362 27.0492C84.4657 28.2674 86.5518 29.8367 88.1998 31.4486C88.6641 31.9047 89.8125 33.0974 89.7953 33.1056C89.7953 33.1056 89.3917 33.1409 88.9192 33.1762C85.2286 33.4567 80.5044 34.2352 75.964 35.3311C75.766 35.3789 75.5672 35.4232 75.3676 35.464C75.3504 35.464 75.6925 35.1211 76.1223 34.7093C78.7867 32.1409 80.0049 30.52 81.4412 27.6276C81.643 27.1985 81.8194 26.831 81.8358 26.804ZM62.3165 28.8022C62.4395 28.8285 63.5789 29.3625 64.4378 29.7924C65.2269 30.1861 66.4115 30.8178 66.4722 30.8703C66.4812 30.8785 66.0604 31.0983 65.5436 31.3526C63.9988 32.1213 62.4869 32.9547 61.0122 33.8504C60.5914 34.1047 60.2411 34.3147 60.2321 34.3147C60.1968 34.3147 60.205 34.2795 60.4421 33.8504C61.2312 32.4133 61.8612 30.6955 62.2205 29.0213C62.2558 28.89 62.2902 28.8022 62.3165 28.8022ZM61.1771 29.0114C61.2033 29.0385 60.9064 30.1164 60.7226 30.7037C60.3135 31.9341 59.7943 33.1251 59.1714 34.2622C59.0311 34.5083 58.8211 34.8668 58.7071 35.0678L58.4873 35.4189L57.9967 34.9464C57.4274 34.3943 56.9615 34.0514 56.3659 33.7446C56.1297 33.6216 55.9459 33.5166 55.9459 33.4994C55.9459 33.4296 57.4446 32.072 58.5931 31.0901C59.4167 30.3797 61.1508 28.986 61.1771 29.0114ZM68.1448 31.8784L68.5763 32.1581C69.6248 32.8463 70.634 33.5926 71.5991 34.3935C72.0995 34.8053 73.0634 35.6732 73.2562 35.8832L73.3603 35.998L72.6508 36.199C68.6362 37.3122 65.5346 38.3031 61.9145 39.6361C61.5109 39.7838 61.1697 39.9068 61.1434 39.9068C61.0909 39.9068 61.0466 39.9511 61.9498 39.1185C64.2631 36.989 66.3139 34.6396 67.8396 32.3526L68.1448 31.8784ZM66.3139 32.3345C66.3319 32.3526 65.131 34.044 64.4124 34.9989C63.2999 36.4566 62.1539 37.8885 60.9753 39.2932C60.538 39.81 60.1615 40.239 60.1443 40.2481C60.1172 40.2563 60.109 40.125 60.109 39.924C60.109 38.8634 59.8367 37.7338 59.3633 36.7691C59.1624 36.3672 59.1271 36.2687 59.1714 36.2244C59.3379 36.0768 61.8883 34.6215 63.5002 33.7545C64.5879 33.1762 66.2876 32.3165 66.3139 32.3345ZM55.2347 35.0497C55.2618 35.0497 55.4644 35.1564 55.6916 35.2794C56.2245 35.5707 56.7292 35.9107 57.1994 36.295C57.2158 36.313 56.9894 36.4976 56.6908 36.7166C55.7321 37.409 54.7885 38.122 53.8607 38.8552C53.0888 39.4688 53.0617 39.4868 53.1487 39.3556C53.7278 38.4696 54.0166 37.9692 54.3233 37.3302C54.6054 36.7352 54.8514 36.1238 55.06 35.4993C55.1297 35.245 55.2175 35.0497 55.2347 35.0497ZM58.1714 37.3655H58.1895C58.233 37.3573 58.2863 37.4344 58.5225 37.7855C59.0221 38.5295 59.4085 39.5295 59.5044 40.3367L59.5225 40.5122L58.3207 40.9765C56.1732 41.8091 54.1921 42.6319 52.8509 43.2455C52.3615 43.4755 51.874 43.7093 51.3883 43.9469C50.9584 44.1659 50.6082 44.3324 50.6082 44.3242C50.6082 44.3152 50.8797 44.1142 51.2135 43.8689C53.8344 41.9666 56.1026 39.8814 57.8031 37.7945C57.9877 37.5763 58.1534 37.3745 58.1714 37.3655ZM56.8302 37.6985C56.8655 37.7346 55.8672 38.8634 55.1839 39.5557C53.4924 41.2825 51.8165 42.6319 49.7394 43.9469C49.4769 44.1134 49.2407 44.2627 49.2144 44.2807C49.1529 44.3152 49.2317 44.2282 50.143 43.2373C50.6777 42.6635 51.1836 42.0637 51.659 41.44C51.992 41.0101 52.0544 40.9503 52.5367 40.6082C53.8246 39.6788 56.7958 37.6633 56.8302 37.6985ZM68.5664 38.7436C68.6837 39.0348 68.9298 41.4277 68.9963 43.0256C69.0135 43.3858 69.0053 43.6237 68.9881 43.6237C68.9175 43.6237 67.5058 42.7902 66.4984 42.1594C65.6248 41.6098 63.9751 40.5155 63.702 40.2989C65.3152 39.755 66.9369 39.2365 68.5664 38.7436ZM62.7603 40.6336C62.8751 40.6828 63.0474 40.778 63.396 40.9929C65.2007 42.1233 67.6559 43.4916 68.7075 43.9469C69.0316 44.0871 69.0668 44.0346 68.322 44.5432C66.7265 45.6301 64.7372 46.7006 62.3009 47.7777C62.0376 47.8979 61.7715 48.0116 61.5027 48.119C61.4855 48.119 61.5372 47.8999 61.6069 47.6374C62.1942 45.4546 62.5281 43.2463 62.5453 41.4753C62.5503 41.0339 62.5519 40.8165 62.5634 40.7042L62.7603 40.6336ZM61.4158 41.1127C61.4617 41.2743 61.4297 43.0781 61.3616 43.5966C61.2057 44.8887 60.9361 46.1646 60.5561 47.4094C60.4593 47.7334 60.3715 48.0058 60.3535 48.023C60.3182 48.0665 59.1189 46.8926 58.7243 46.4373C58.041 45.6482 57.5053 44.859 57.1108 44.0879C56.9213 43.7163 56.6489 43.0511 56.6383 42.9494C57.881 42.444 59.1665 41.9404 60.5208 41.4318C60.7989 41.3276 61.1262 41.2185 61.4158 41.1127ZM55.7203 43.3333C55.7425 43.3677 55.7917 43.4793 55.8401 43.6237C56.1207 44.3865 56.7515 45.5087 57.2953 46.2273C57.8909 47.0156 58.6718 47.8556 59.3207 48.4077C59.5307 48.5833 59.7226 48.7498 59.7481 48.7769C59.8014 48.8285 59.8203 48.8212 58.3913 49.3642C56.7351 49.9958 54.9296 50.625 52.8607 51.2919C52.3662 51.451 51.8721 51.6116 51.3784 51.7735C51.2997 51.7997 51.3267 51.7571 51.5548 51.3978C52.5802 49.794 54.1404 46.6481 55.0165 44.4218C55.1658 44.0354 55.3143 43.6483 55.3405 43.5605C55.3512 43.5236 55.3684 43.5031 55.3815 43.4785C55.4964 43.4292 55.6047 43.3817 55.7203 43.3333ZM53.891 44.1158C53.8517 44.2553 53.4751 45.0469 53.0707 45.841C52.2201 47.498 51.2907 49.1271 50.0471 51.1074C49.8362 51.4494 49.6344 51.7661 49.6082 51.8013C49.5639 51.862 49.5483 51.8456 49.408 51.5733C49.1103 50.986 48.8633 50.2313 48.7313 49.5389C48.6 48.8548 48.6279 47.6637 48.7764 46.9271C48.8428 46.6104 48.8724 46.4865 48.9339 46.4078C50.5656 45.5999 52.2186 44.8357 53.891 44.1158ZM69.0488 44.6392V45.0083C69.0488 46.9623 68.838 49.6447 68.532 51.5996C68.4787 51.9408 68.4352 52.2213 68.427 52.2312C68.427 52.2312 68.1727 52.1598 67.8741 52.0721C66.4771 51.6281 65.1266 51.0495 63.8414 50.3445C62.9916 49.881 61.7562 49.1189 61.7906 49.0837C61.7997 49.0755 62.1688 48.8827 62.5987 48.6546C64.3164 47.7605 65.9628 46.7966 67.3917 45.841C67.9266 45.4817 68.7321 44.9033 68.9077 44.745L69.0488 44.6392ZM47.3154 47.2511C47.3384 47.2658 47.3318 47.3372 47.2851 47.6194C47.2411 47.9311 47.2091 48.2445 47.1891 48.5587C47.1185 49.8383 47.3302 50.785 47.961 52.0811C48.1366 52.4412 48.276 52.7373 48.267 52.7463C48.2055 52.7997 42.405 54.4994 40.5807 54.9989C40.0376 55.1474 39.5643 55.2803 39.529 55.2893C39.4683 55.3065 39.4593 55.2975 39.4855 55.1482C39.6873 53.8603 40.6684 52.1779 42.0367 50.7579C42.9473 49.8113 43.6741 49.2584 44.9185 48.5488C45.4942 48.2233 46.0739 47.905 46.6575 47.594C46.8716 47.4791 47.0972 47.3651 47.3154 47.2511ZM60.9851 49.6792C60.9933 49.671 61.2041 49.7858 61.4576 49.9343C63.3337 51.0212 65.9464 52.0286 68.1727 52.5462L68.3745 52.5897L68.0923 52.7463C66.9275 53.3944 63.0966 54.9899 59.1796 56.4542C58.6095 56.6642 58.05 56.875 57.9442 56.9185C57.8392 56.9628 57.7424 56.989 57.7424 56.9808C57.7424 56.9726 57.8999 56.6658 58.1009 56.2885C59.1968 54.2377 60.3001 51.739 60.8621 50.0032C60.9318 49.8367 60.9761 49.6882 60.9851 49.6792ZM59.5906 50.1345C59.6004 50.1435 59.5299 50.3281 59.4429 50.5389C58.68 52.3879 57.6801 54.4042 56.4012 56.665C56.0764 57.2441 55.8065 57.7084 55.7974 57.7084C55.7884 57.7084 55.5251 57.5501 55.2093 57.3573C53.3505 56.2171 51.7033 54.816 50.6254 53.4576L50.4671 53.264L51.2644 53.0441C54.1224 52.2648 56.5489 51.4232 58.9598 50.3896C59.3018 50.2493 59.5832 50.1353 59.5914 50.1353L59.5906 50.1345ZM68.2506 53.1598C68.2588 53.3632 67.8126 55.1663 67.4451 56.4714C67.1163 57.6352 66.7654 58.7926 66.3926 59.9429C66.1826 60.6099 65.9989 61.1611 65.9907 61.1611C65.9516 61.1566 65.9131 61.1481 65.8758 61.1357C63.273 60.6624 60.9408 60.0037 58.7498 59.1276C58.1362 58.8823 57.2601 58.4877 57.2076 58.4434C57.1895 58.4262 57.7162 58.1809 58.3814 57.8922C62.3698 56.1482 66.5074 54.1671 67.9274 53.3165C68.0931 53.2115 68.2244 53.1598 68.2506 53.1598ZM48.2596 53.8423C48.276 53.8603 47.1628 55.4632 45.6026 57.6461C45.0596 58.409 44.4296 59.3023 44.1925 59.6353C43.9189 60.0215 43.653 60.4131 43.3951 60.81L43.026 61.3801L42.6323 61.0471C42.168 60.6615 41.3608 59.8379 41.0015 59.3819C40.2468 58.4442 39.7398 57.4541 39.538 56.5518C39.4412 56.131 39.4412 55.9201 39.529 55.8947C39.6603 55.8594 42.0014 55.3074 44.1925 54.7988C45.2391 54.5576 46.2848 54.312 47.3294 54.0621C47.838 53.9391 48.2514 53.8423 48.2596 53.8423ZM49.3801 54.2713L49.6607 54.5871C50.9232 55.9981 52.2119 57.0423 53.7721 57.9537C54.0518 58.1112 54.2626 58.2506 54.2446 58.2597C54.1831 58.304 48.8281 60.2055 46.3475 61.0651C45.499 61.3653 44.6485 61.6601 43.7963 61.9494C43.7881 61.9494 43.7101 61.8969 43.6224 61.8354L43.4641 61.7214L43.7183 61.3531C44.5419 60.1612 45.5764 58.8552 47.8298 56.1383L49.3801 54.2713ZM56.3758 59.2769C56.384 59.2687 56.7695 59.4081 57.242 59.5828C58.3823 60.0127 59.2846 60.2842 60.4946 60.591C61.9851 60.9683 64.1408 61.3358 65.4115 61.4417C65.6043 61.4581 65.7093 61.4778 65.674 61.504C65.6133 61.5393 64.3238 61.9683 63.3771 62.2669C61.8694 62.7394 57.2691 64.0978 53.517 65.1757C52.8246 65.3775 52.2291 65.5449 52.1938 65.5531C52.1069 65.5703 51.8173 65.4907 51.8173 65.4563C51.8173 65.439 52.0281 65.1667 52.2824 64.8681C53.5594 63.3427 54.7473 61.7448 55.8401 60.0824C56.1297 59.6444 56.3758 59.2859 56.3758 59.2769ZM54.8328 59.3203V59.322C54.841 59.3302 54.2175 60.3293 53.1314 62.0471C52.6671 62.7738 52.1503 63.5983 51.9666 63.8878C51.791 64.1684 51.5269 64.6056 51.3784 64.8509L51.125 65.2979L50.9937 65.2627C50.6787 65.1749 48.4598 64.3956 47.8732 64.1585C47.1772 63.881 46.4958 63.5683 45.8315 63.2217C45.1301 62.8444 44.254 62.2825 44.3237 62.2653C44.3418 62.2562 45.5411 61.9314 46.9865 61.5376C50.8255 60.4942 52.9567 59.8896 54.3504 59.4516C54.6047 59.3728 54.8237 59.3113 54.8328 59.3203ZM65.7454 61.8797H65.7536C65.788 61.9675 64.3689 65.9115 63.8513 67.156C63.7381 67.4365 63.693 67.5062 63.6323 67.4972C63.483 67.489 61.4232 67.2011 60.1697 67.0173C57.9877 66.6843 54.3233 66.0428 53.4038 65.8328L53.1938 65.7877L54.4997 65.4924C57.3052 64.8607 58.653 64.5187 60.0204 64.0978C61.7857 63.5563 63.5107 62.8913 65.1826 62.1078C65.4542 61.9847 65.683 61.8879 65.7454 61.8797ZM31.1241 66.1207C30.7632 66.1207 30.4678 66.2298 30.225 66.4571C29.9428 66.7253 29.7927 67.0723 29.7927 67.544V68.2314H29.084V68.7949H29.7927V72.4084L29.7968 72.4068H30.4687V68.7794H31.4489V68.215H30.4687V67.5678C30.4687 66.9788 30.6951 66.6851 31.1667 66.6851C31.3251 66.6851 31.4875 66.7253 31.6073 66.7926V66.1872C31.4875 66.133 31.3259 66.1215 31.1233 66.1215L31.1241 66.1207ZM8.39734 66.2799C8.34038 66.2777 8.28361 66.2875 8.23065 66.3086C8.17768 66.3296 8.12969 66.3615 8.08972 66.4021C8.04778 66.4419 8.0142 66.4897 7.99096 66.5427C7.96772 66.5956 7.95528 66.6527 7.95437 66.7105C7.95437 66.8442 7.99538 66.9378 8.08972 67.0181C8.17248 67.0974 8.28274 67.1415 8.39734 67.1412H8.39898C8.45599 67.1432 8.51279 67.1333 8.56576 67.1121C8.61873 67.0909 8.6667 67.0589 8.70659 67.0181C8.74896 66.9788 8.78288 66.9312 8.80628 66.8783C8.82969 66.8254 8.8421 66.7684 8.84276 66.7105C8.84521 66.6524 8.83445 66.5944 8.8113 66.541C8.78814 66.4876 8.75318 66.4401 8.70905 66.4021C8.66775 66.3621 8.61894 66.3307 8.56543 66.3098C8.51193 66.2888 8.45479 66.2786 8.39734 66.2799ZM65.8077 66.3488V66.5366H66.304V68.0427H66.4919V66.5366H66.9898V66.3488H65.8077ZM67.2449 66.3488V68.0427H67.4319V66.9123L67.4451 66.909C67.4451 66.7638 67.4451 66.6433 67.4336 66.5752C67.4459 66.6547 67.4746 66.7097 67.4869 66.7499L68.0636 68.0419H68.1563L68.7362 66.7376C68.7526 66.6982 68.7641 66.6441 68.7896 66.5752C68.7798 66.6829 68.7755 66.791 68.7764 66.8992V68.0394H68.9766V66.348H68.7362L68.2112 67.5161C68.1989 67.5571 68.1579 67.6383 68.1325 67.731H68.1144C68.1046 67.6769 68.0783 67.6219 68.0398 67.53L67.5148 66.3488H67.2449ZM0.610929 66.5391V72.4101H1.27046V68.475L1.28194 68.4717C1.28194 67.9467 1.26554 67.5563 1.25323 67.3274H1.26554C1.31886 67.5981 1.38612 67.8007 1.44027 67.9344L3.44183 72.4084H3.77816L5.78054 67.8951C5.8355 67.772 5.88882 67.5866 5.95527 67.329H5.97003C5.93556 67.7101 5.91777 68.0924 5.91671 68.475V72.4207H6.60249V66.5539H5.74198L3.9012 70.6365C3.83339 70.7979 3.73933 71.039 3.61902 71.3601H3.59277C3.52141 71.1212 3.43201 70.8881 3.32534 70.6628L1.52476 66.5391H0.610929ZM33.2192 66.9788C32.9895 67.0583 32.7631 67.1264 32.5482 67.1929V68.2142H31.8263V68.7777H32.5482V71.2633H32.5514C32.5514 72.0836 32.9124 72.5019 33.6523 72.5019C33.9205 72.5019 34.1215 72.4585 34.2839 72.3625V71.7866C34.159 71.8782 34.0073 71.926 33.8525 71.9228C33.6244 71.9228 33.4636 71.8678 33.3701 71.7464C33.2741 71.6258 33.2192 71.4232 33.2192 71.1427V68.7777H34.2831V68.2142H33.2192V66.9788ZM35.9894 67.3422C35.6506 67.3422 35.3717 67.4504 35.1436 67.6785C34.9123 67.9065 34.8073 68.1871 34.8073 68.5103C34.8073 68.8491 34.9156 69.1296 35.1436 69.3421C35.3594 69.5578 35.6391 69.6653 35.9754 69.6653V69.6686C36.3109 69.6686 36.5907 69.5603 36.8203 69.329C36.933 69.2221 37.0224 69.0929 37.0826 68.9498C37.1429 68.8066 37.1729 68.6525 37.1706 68.4972C37.1706 68.1608 37.05 67.8819 36.8212 67.6662C36.7112 67.5594 36.5809 67.4757 36.438 67.4201C36.2952 67.3644 36.1426 67.3379 35.9894 67.3422ZM35.9894 67.4636C36.2822 67.4636 36.5267 67.5579 36.7301 67.7572C36.9303 67.9582 37.0377 68.2019 37.0377 68.4972C37.0398 68.6367 37.0137 68.7752 36.9608 68.9043C36.9079 69.0335 36.8295 69.1506 36.7301 69.2486C36.6332 69.3455 36.5175 69.4217 36.3901 69.4725C36.2628 69.5233 36.1264 69.5476 35.9894 69.5439C35.6924 69.5439 35.4504 69.452 35.2511 69.2486C35.1517 69.1506 35.0733 69.0335 35.0204 68.9043C34.9675 68.7752 34.9414 68.6367 34.9435 68.4972C34.9435 68.2019 35.0337 67.9582 35.2347 67.7572C35.4348 67.5579 35.6785 67.4636 35.9894 67.4636ZM35.4914 67.7318V69.2363H35.7064V68.6046L35.731 68.6063H35.868C35.9639 68.6063 36.0583 68.6981 36.1387 68.8737L36.3003 69.2363H36.5537L36.3536 68.8319C36.2716 68.6703 36.1928 68.5776 36.0993 68.5521C36.2174 68.5242 36.3117 68.484 36.3782 68.4045C36.4107 68.3677 36.4356 68.3249 36.4514 68.2784C36.4672 68.2319 36.4735 68.1827 36.4701 68.1338C36.4735 68.0804 36.4645 68.027 36.4437 67.9777C36.4229 67.9285 36.3909 67.8847 36.3503 67.8499C36.2576 67.7728 36.11 67.7318 35.9188 67.7318H35.4914ZM35.7293 67.9065H35.9205C36.0558 67.9065 36.151 67.9336 36.2043 67.9738C36.2543 68.0132 36.2699 68.0657 36.2699 68.1608C36.2699 68.3356 36.1608 68.4176 35.9607 68.4176H35.7301L35.7293 67.9065ZM18.5544 68.1067C17.9228 68.1067 17.4142 68.2954 17.0369 68.6588C16.6341 69.0591 16.4208 69.6259 16.4208 70.3511C16.4208 70.9827 16.5931 71.5061 16.9573 71.8957C17.333 72.2993 17.8309 72.5011 18.4618 72.5011L18.4601 72.5028C19.0917 72.5028 19.6003 72.2993 19.9777 71.8957C20.3534 71.4954 20.5412 70.9556 20.5412 70.2838C20.5412 69.5988 20.369 69.0747 20.0171 68.6842C19.6684 68.2954 19.1861 68.1067 18.5544 68.1067ZM26.6829 68.1067L26.6796 68.1083C26.048 68.1083 25.5394 68.2962 25.1621 68.6596C24.7617 69.0607 24.5468 69.6259 24.5468 70.3511C24.5468 70.9827 24.7199 71.5061 25.0817 71.8957C25.459 72.2993 25.9561 72.5011 26.5878 72.5011C27.2342 72.5011 27.728 72.2977 28.1053 71.8941C28.4827 71.4916 28.6714 70.9543 28.6714 70.2822C28.6714 69.5972 28.4942 69.0738 28.1455 68.6826C27.783 68.2937 27.299 68.1067 26.6829 68.1067ZM11.9444 68.1083C11.2734 68.1083 10.7492 68.3233 10.3579 68.74C9.96987 69.1551 9.76972 69.7203 9.76972 70.4028C9.76972 71.0098 9.94444 71.52 10.307 71.9097C10.6844 72.31 11.1659 72.5142 11.7565 72.5142C12.2142 72.5011 12.5875 72.4051 12.9115 72.2173V71.5733C12.5875 71.8153 12.2405 71.9359 11.8804 71.9359C11.4497 71.9359 11.0986 71.7883 10.8435 71.5044C10.5892 71.2239 10.4522 70.8351 10.4522 70.3494C10.4522 69.8408 10.59 69.4364 10.8706 69.1288C11.1396 68.8335 11.4885 68.6856 11.9173 68.685C12.2667 68.685 12.6014 68.7941 12.9115 69.0099V68.3224C12.6293 68.1748 12.3094 68.1083 11.9444 68.1083ZM22.7717 68.1256C22.341 68.1256 21.9768 68.2445 21.7094 68.4734C21.5768 68.576 21.47 68.7082 21.3976 68.8595C21.3253 69.0108 21.2893 69.1769 21.2926 69.3446C21.2926 69.6522 21.3845 69.9081 21.5601 70.096C21.7077 70.2559 21.962 70.42 22.3131 70.566C22.6494 70.7137 22.8759 70.8465 22.9973 70.9548C23.0539 71.0048 23.099 71.0667 23.1292 71.136C23.1594 71.2053 23.174 71.2804 23.172 71.356C23.172 71.7472 22.9037 71.9499 22.3804 71.9499C21.9773 71.9504 21.6142 71.817 21.291 71.5495V72.2714C21.5839 72.4486 21.9358 72.5282 22.3246 72.5282C22.8217 72.5019 23.2105 72.3805 23.478 72.1394L23.4829 72.1377C23.7388 71.9097 23.8742 71.6283 23.8742 71.2764C23.877 71.1345 23.8511 70.9936 23.7979 70.862C23.7448 70.7305 23.6655 70.6111 23.5649 70.511C23.4009 70.3494 23.1507 70.2042 22.7848 70.0566C22.4616 69.9212 22.2614 69.8015 22.1532 69.7071C22.0953 69.6512 22.0499 69.5837 22.0198 69.5091C21.9897 69.4345 21.9756 69.3544 21.9784 69.274C21.9784 69.1001 22.0457 68.968 22.1786 68.8597C22.3139 68.7523 22.4878 68.699 22.7192 68.699C23.0801 68.699 23.3902 68.7949 23.6724 68.9976V68.3249C23.3922 68.1881 23.0835 68.1197 22.7717 68.1256ZM15.7063 68.1477C15.4643 68.1477 15.2494 68.2297 15.0583 68.379C14.8589 68.5374 14.6998 68.7794 14.6055 69.087H14.5891V68.2297H13.9197V72.4191H14.5907V70.2699L14.6055 70.2674C14.6055 69.7859 14.7121 69.3979 14.9131 69.1288C15.1012 68.8871 15.3298 68.7657 15.5989 68.7646C15.8269 68.7646 15.9885 68.8064 16.1066 68.9008V68.201C16.0148 68.16 15.8802 68.1477 15.7063 68.1477ZM8.10366 68.4816V72.1377H8.69429V68.4816H8.10366ZM26.6534 68.6719C27.0693 68.6719 27.4032 68.8056 27.646 69.0738C27.8601 69.3692 27.9823 69.7736 27.9823 70.3109H27.9839C27.9839 70.8219 27.8748 71.2247 27.6476 71.4938C27.4187 71.776 27.0832 71.9244 26.6386 71.9244C26.208 71.9244 25.8749 71.776 25.619 71.4938C25.3647 71.2108 25.2416 70.8219 25.2416 70.3109C25.2416 69.7719 25.3762 69.3544 25.646 69.0738C25.9003 68.8059 26.2361 68.6719 26.6534 68.6719ZM18.5134 68.685C18.9449 68.685 19.2681 68.8187 19.5076 69.0886C19.7496 69.3708 19.8702 69.7719 19.8702 70.3109C19.8702 70.8211 19.7619 71.2247 19.5339 71.4938C19.3067 71.776 18.9712 71.9244 18.5274 71.9244C18.0967 71.9244 17.7612 71.776 17.5053 71.4938C17.251 71.2108 17.1304 70.8219 17.1304 70.3109C17.1041 69.8023 17.2378 69.3864 17.5053 69.0886C17.7612 68.819 18.0973 68.6845 18.5134 68.685ZM5.64355 73.9883C2.98573 73.949 1.26554 74.8201 0.460812 76.5945C-0.722899 79.2137 0.325461 81.1882 4.1112 83.3908C6.23745 84.627 7.17507 85.7024 7.17507 86.873C7.17507 89.2913 4.2605 90.1354 1.25241 88.6178C0.633898 88.3094 0.109718 88.0518 0.0810073 88.0518C-0.027274 88.7376 0.027687 90.3782 0.027687 90.3782C0.027687 90.3782 0.95382 90.767 2.34015 91.0344C5.77726 91.7202 8.90675 90.1067 9.20206 87.4882C9.45964 85.0297 8.5696 83.7402 5.2014 81.728V81.7296C2.95866 80.3704 1.96444 79.3917 2.08667 78.2351C2.43448 75.0392 6.38265 75.4821 8.57042 76.6913L8.58683 74.5404C8.58683 74.5404 7.37687 74.0154 5.64355 73.9883ZM18.8752 73.9883V73.99C18.7136 73.99 18.552 74.0064 18.392 74.0064C15.1272 74.1795 12.9238 75.6175 11.6359 78.4246C10.5343 80.9626 10.6548 84.28 11.6482 86.8344C12.8032 89.3298 14.6703 90.6472 17.7866 91.1444C18.4453 91.2526 18.8875 91.6128 20.1655 93.1033L21.7356 94.9457H24.5862L22.6913 93.0344C21.6429 91.9876 20.7964 91.0754 20.7964 90.9951C20.7964 90.9155 21.1975 90.7408 21.6823 90.5931C23.2819 90.1091 24.6084 88.8737 25.5378 86.9804C26.2892 85.4604 26.3975 84.9895 26.5057 83.0979C26.7871 77.4681 23.8184 73.9481 18.8752 73.9883ZM48.0627 74.0171C45.4033 73.9777 43.6847 74.8488 42.8783 76.6232C41.6963 79.2416 42.7578 81.2169 46.5312 83.4203C48.6542 84.6557 49.5926 85.7172 49.5926 86.8869C49.5926 89.3052 46.678 90.1633 43.67 88.6317C43.0539 88.3241 42.5297 88.0698 42.5002 88.0698C42.3927 88.7548 42.4469 90.3962 42.4469 90.3962C42.4469 90.3962 43.3615 90.7687 44.7437 91.0508C48.1841 91.7374 51.3128 90.1272 51.6081 87.5087C51.8632 85.0626 50.9773 83.7738 47.6189 81.7583V81.7551C45.3762 80.3999 44.3836 79.4172 44.5042 78.2605C44.852 75.0646 48.801 75.5084 50.988 76.7167L51.0044 74.5667C51.0044 74.5667 49.7952 74.0417 48.0627 74.0171ZM29.0815 74.1918V90.7949H37.8523V88.8344H31.1667V74.1918H29.0815ZM18.7275 75.7356C22.1942 75.7356 24.1662 77.8578 24.4238 81.8469C24.6272 85.1774 23.5116 87.6761 21.3763 88.7121L21.3747 88.7138C19.9883 89.3848 17.9753 89.5177 16.6612 89.0353C15.3027 88.5366 13.9869 87.1273 13.3963 85.5301C12.7384 83.7829 12.8328 80.559 13.585 79.1087C14.7933 76.7979 16.3913 75.7356 18.7275 75.7356ZM88.911 78.6641C88.4808 78.6697 88.0523 78.7191 87.6321 78.8118C84.8677 79.5361 83.3091 82.1865 83.4157 84.9133C83.4157 87.1929 83.8587 88.3241 84.9604 89.5193C87.2162 91.3732 89.2588 91.5201 92.0257 90.5258C92.3529 90.3859 92.6792 90.2437 93.0044 90.0993V88.2437L92.0241 88.7556C89.7904 89.7236 88.1112 89.7228 86.7708 88.5792C85.9087 87.7072 85.5354 86.672 85.3599 85.4621H93.6885V83.8764C93.6885 80.6575 91.7403 78.6133 88.9061 78.6674L88.911 78.6641ZM103.808 78.6641C103.469 78.6641 103.189 78.7724 102.96 79.0029C102.732 79.2293 102.624 79.5115 102.624 79.8347C102.624 80.171 102.732 80.4508 102.959 80.6673C103.186 80.8828 103.468 80.9903 103.806 80.9897C104.14 80.9897 104.421 80.8822 104.654 80.6534C104.88 80.4237 105 80.1579 105 79.8232C104.987 79.4844 104.866 79.2031 104.638 78.9881L104.64 78.9865C104.529 78.8801 104.399 78.7969 104.256 78.7417C104.113 78.6865 103.961 78.6596 103.808 78.6641ZM58.4454 78.692C58.0211 78.6964 57.5984 78.7459 57.1846 78.8397C54.4169 79.564 52.8566 82.2128 52.9518 84.9387C52.9518 87.2216 53.3972 88.3643 54.4981 89.5611C56.7539 91.4126 58.7949 91.5594 61.5487 90.566C62.0179 90.3659 62.5314 90.1345 62.5314 90.1345V88.2823L61.5487 88.7917C59.3199 89.7621 57.6423 89.7621 56.297 88.6194C55.4398 87.7458 55.06 86.6991 54.8869 85.5022H63.2278V83.9174C63.2278 80.6837 61.2821 78.642 58.4487 78.692H58.4471H58.4454ZM101.065 78.7724C99.8696 78.7724 98.9442 79.2564 98.338 80.2112L97.854 80.9626V79.0021H95.786V90.7678H97.8532V87.0075C97.8532 83.5688 97.8942 83.1652 98.3766 82.2251C99.0394 80.9364 100.18 80.2916 101.281 80.6017L102.02 80.8166V78.7724H101.065ZM103.792 78.7888C104.085 78.7888 104.329 78.879 104.532 79.08C104.732 79.2835 104.84 79.5263 104.84 79.8183C104.84 80.1308 104.747 80.3712 104.532 80.5746C104.435 80.6714 104.32 80.7474 104.193 80.7978C104.065 80.8481 103.929 80.8719 103.792 80.8675C103.499 80.8675 103.257 80.7748 103.054 80.5746C102.954 80.476 102.876 80.3584 102.823 80.2287C102.77 80.099 102.744 79.96 102.746 79.8199C102.746 79.5271 102.838 79.2835 103.041 79.08C103.241 78.8799 103.483 78.7888 103.792 78.7888ZM70.6016 78.7995C69.4064 78.7995 68.491 79.2835 67.8741 80.2367L67.3901 80.9913V79.0283H65.3237V90.7965H67.3909V87.0346C67.3909 83.595 67.4336 83.1931 67.9143 82.2522C68.5763 80.961 69.7157 80.3179 70.8182 80.6255L71.5565 80.842V78.8028H70.6033L70.6016 78.7995ZM72.2127 79.0144C73.614 82.9659 75.0831 86.8931 76.6194 90.7941C77.2782 90.8097 77.9369 90.7941 78.5947 90.7941L80.9162 84.9641L83.2787 79.0152H81.2394C81.2394 79.0152 80.3371 81.3794 79.397 84.0257L79.4003 84.024L77.6809 88.4972L76.028 83.9986L74.3488 79.0136L72.2127 79.0144ZM103.322 79.0702V80.573H103.539V79.9397H103.673C103.765 79.9397 103.857 80.034 103.941 80.2096L104.102 80.5714H104.357L104.157 80.1677C104.088 79.9947 104.008 79.9159 103.928 79.8888C104.034 79.8672 104.132 79.816 104.21 79.7412C104.275 79.6667 104.309 79.5695 104.303 79.4705C104.306 79.4173 104.297 79.3642 104.276 79.3152C104.255 79.2663 104.223 79.2228 104.183 79.1883C104.09 79.1112 103.942 79.0702 103.752 79.0702H103.322ZM103.549 79.2449H103.739C103.874 79.2449 103.967 79.2695 104.021 79.3105C104.075 79.3515 104.087 79.4032 104.087 79.4992C104.087 79.6731 103.979 79.7535 103.779 79.7535H103.549V79.2449ZM88.788 80.4261C89.4048 80.4261 90.0233 80.6247 90.5336 81.0151C91.5811 81.8215 91.7583 83.8108 91.7583 83.8108H85.5403C85.5469 83.7714 85.8603 81.801 86.9898 81.002C87.5152 80.6285 88.1434 80.4278 88.788 80.4261ZM58.3256 80.4655C58.9569 80.4651 59.5707 80.6726 60.0721 81.0561C61.1196 81.8625 61.2944 83.837 61.2944 83.837H55.078C55.0846 83.7927 55.3955 81.8248 56.5259 81.0422C57.0517 80.6684 57.6805 80.4669 58.3256 80.4655Z" fill="white"/>
</svg>
