<svg width="45" height="35" viewBox="0 0 45 35" fill="none" xmlns="http://www.w3.org/2000/svg">
<path d="M28.6364 0C32.9763 0 37.1384 1.84375 40.2072 5.12563C43.276 8.40752 45 12.8587 45 17.5C45 22.1413 43.276 26.5925 40.2072 29.8744C37.1384 33.1563 32.9763 35 28.6364 35C24.2965 35 20.1343 33.1563 17.0655 29.8744C13.9967 26.5925 12.2727 22.1413 12.2727 17.5C12.2727 12.8587 13.9967 8.40752 17.0655 5.12563C20.1343 1.84375 24.2965 0 28.6364 0ZM28.6364 4.375C25.3814 4.375 22.2598 5.75781 19.9582 8.21922C17.6567 10.6806 16.3636 14.019 16.3636 17.5C16.3636 20.981 17.6567 24.3194 19.9582 26.7808C22.2598 29.2422 25.3814 30.625 28.6364 30.625C31.8913 30.625 35.0129 29.2422 37.3145 26.7808C39.6161 24.3194 40.9091 20.981 40.9091 17.5C40.9091 14.019 39.6161 10.6806 37.3145 8.21922C35.0129 5.75781 31.8913 4.375 28.6364 4.375ZM26.5909 8.75H29.6591V17.0187L34.425 22.1156L32.2568 24.4344L26.5909 18.375V8.75ZM2.04545 30.625C1.50297 30.625 0.982697 30.3945 0.5991 29.9843C0.215503 29.5741 0 29.0177 0 28.4375C0 27.8573 0.215503 27.3009 0.5991 26.8907C0.982697 26.4805 1.50297 26.25 2.04545 26.25H9.87955C10.5136 27.8031 11.3318 29.2687 12.2727 30.625H2.04545ZM4.09091 19.6875C3.54842 19.6875 3.02815 19.457 2.64455 19.0468C2.26096 18.6366 2.04545 18.0802 2.04545 17.5C2.04545 16.9198 2.26096 16.3634 2.64455 15.9532C3.02815 15.543 3.54842 15.3125 4.09091 15.3125H8.28409L8.18182 17.5L8.28409 19.6875H4.09091ZM6.13636 8.75C5.59388 8.75 5.07361 8.51953 4.69001 8.1093C4.30641 7.69906 4.09091 7.14266 4.09091 6.5625C4.09091 5.98234 4.30641 5.42594 4.69001 5.0157C5.07361 4.60547 5.59388 4.375 6.13636 4.375H12.2727C11.3318 5.73125 10.5136 7.19688 9.87955 8.75H6.13636Z" fill="#59C2E8"/>
</svg>
